<svg xmlns="http://www.w3.org/2000/svg" width="18.38" height="17.757" viewBox="0 0 18.38 17.757">
  <g id="kart" transform="translate(0 -4.696)">
    <g id="Group_968" data-name="Group 968" transform="translate(0 4.696)">
      <path id="Subtraction_6" data-name="Subtraction 6" d="M17.9,12.575H.484A.485.485,0,0,1,0,12.091L.282,8.705H18.1l.282,3.386A.484.484,0,0,1,17.9,12.575Zm.12-4.837H.363L.967.483A.484.484,0,0,1,1.451,0H4.885V1.275a1.19,1.19,0,1,0,2.38,0V0h3.494V1.275a1.19,1.19,0,0,0,2.38,0V0h3.789a.484.484,0,0,1,.484.483l.6,7.254Z" transform="translate(0 5.181)" fill="#4e4e4e"/>
      <path id="Path_28671" data-name="Path 28671" d="M14.438,7.083a.7.7,0,0,0,.7-.7V3.634a2.226,2.226,0,0,1,4.452,0V6.379a.7.7,0,1,0,1.408,0V3.634a3.634,3.634,0,1,0-7.267,0V6.379A.7.7,0,0,0,14.438,7.083Z" transform="translate(-8.358)" fill="#4e4e4e"/>
    </g>
  </g>
</svg>
