<svg xmlns="http://www.w3.org/2000/svg" width="16.575" height="18.513" viewBox="0 0 16.575 18.513">
  <g id="user" transform="translate(0 0)">
    <path id="Path_28676" data-name="Path 28676" d="M-492.7,1715.656a4.821,4.821,0,0,0-4.821,4.821,4.821,4.821,0,0,0,4.821,4.821,4.821,4.821,0,0,0,4.821-4.821,4.821,4.821,0,0,0-4.821-4.821" transform="translate(501.002 -1715.656)" fill="#4e4e4e"/>
    <path id="Path_28677" data-name="Path 28677" d="M-550.235,1916.236a.5.5,0,0,1-.044.3c-1.287,2.683-4.449,4.59-8.158,4.629h-.283l-.118,0a9.031,9.031,0,0,1-7.913-4.476.487.487,0,0,1-.05-.271c.17-1.709,2.1-3.164,4.822-3.844a.5.5,0,0,1,.439.1,4.8,4.8,0,0,0,3.043,1.081,4.8,4.8,0,0,0,3.039-1.079.5.5,0,0,1,.438-.1C-552.4,1913.23-550.516,1914.606-550.235,1916.236Z" transform="translate(566.803 -1902.651)" fill="#4e4e4e"/>
  </g>
</svg>
