<svg id="eye" xmlns="http://www.w3.org/2000/svg" width="26.416" height="15.746" viewBox="0 0 26.416 15.746">
  <path id="Path_28873" data-name="Path 28873" d="M13.208,98.725c-5.047,0-9.624,2.761-13,7.246a1.046,1.046,0,0,0,0,1.248c3.377,4.491,7.954,7.252,13,7.252s9.624-2.761,13-7.246a1.046,1.046,0,0,0,0-1.248C22.832,101.486,18.255,98.725,13.208,98.725Zm.362,13.418a5.556,5.556,0,1,1,5.182-5.182A5.559,5.559,0,0,1,13.57,112.143Zm-.168-2.561a2.992,2.992,0,1,1,2.794-2.794A2.987,2.987,0,0,1,13.4,109.581Z" transform="translate(0 -98.725)" fill="#6d6d6d"/>
</svg>
