<svg id="Group_955" data-name="Group 955" xmlns="http://www.w3.org/2000/svg" width="31.547" height="31.547" viewBox="0 0 31.547 31.547">
  <g id="facebook-logo-in-circular-button-outlined-social-symbol">
    <g id="Group_944" data-name="Group 944">
      <path id="Path_28645" data-name="Path 28645" d="M31.547,15.774A15.774,15.774,0,1,0,15.774,31.547,15.774,15.774,0,0,0,31.547,15.774Zm-30.113,0a14.34,14.34,0,1,1,14.34,14.34A14.339,14.339,0,0,1,1.434,15.774Z" fill="#686868"/>
    </g>
  </g>
  <g id="facebook-logo" transform="translate(11.207 8.056)">
    <path id="Path_28654" data-name="Path 28654" d="M30.757,0,28.594,0a3.8,3.8,0,0,0-4,4.106V6H22.417a.34.34,0,0,0-.34.34V9.082a.34.34,0,0,0,.34.34h2.175v6.921a.34.34,0,0,0,.34.34h2.838a.34.34,0,0,0,.34-.34V9.422h2.543a.34.34,0,0,0,.34-.34V6.339a.34.34,0,0,0-.34-.34H28.111v-1.6c0-.771.184-1.163,1.189-1.163h1.457a.34.34,0,0,0,.34-.34V.344A.34.34,0,0,0,30.757,0Z" transform="translate(-22.077)" fill="#686868"/>
  </g>
</svg>
