<svg id="gallery" xmlns="http://www.w3.org/2000/svg" width="20.865" height="18.029" viewBox="0 0 20.865 18.029">
  <g id="Group_3952" data-name="Group 3952" transform="translate(0 0)">
    <path id="Path_28874" data-name="Path 28874" d="M10.81,242.315a2.639,2.639,0,0,1-1.656-.618L6.093,239a1.347,1.347,0,0,0-1.741-.084L0,242.118V244.2a1.011,1.011,0,0,0,.952,1.066c.029,0,.057,0,.086,0H16.452a1.182,1.182,0,0,0,1.235-1.067V238.75l-5.53,3.2A2.555,2.555,0,0,1,10.81,242.315Z" transform="translate(0 -227.235)" fill="#232323"/>
    <circle id="Ellipse_552" data-name="Ellipse 552" cx="1.235" cy="1.235" r="1.235" transform="translate(9.35 7.163)" fill="#232323"/>
    <path id="Path_28875" data-name="Path 28875" d="M74.029,28.6a1.039,1.039,0,0,0-.758-.421l-15.3-1.769a1.118,1.118,0,0,0-1.263.955l-.253,2.19H69.874a2.414,2.414,0,0,1,2.358,2.33v9.91c0-.056.253-.112.365-.225a.954.954,0,0,0,.365-.758l1.319-11.4A1.1,1.1,0,0,0,74.029,28.6Z" transform="translate(-53.422 -26.403)" fill="#232323"/>
    <path id="Path_28876" data-name="Path 28876" d="M16.481,105.9H1.069A1.133,1.133,0,0,0,.03,107.106v8l3.706-2.695a2.47,2.47,0,0,1,3.116.14l3.088,2.695a1.432,1.432,0,0,0,1.656.14l6.12-3.565v-4.716A1.291,1.291,0,0,0,16.481,105.9Zm-5.867,6.485a2.358,2.358,0,1,1,2.358-2.358A2.358,2.358,0,0,1,10.613,112.384Z" transform="translate(-0.028 -101.627)" fill="#232323"/>
  </g>
</svg>
