<svg xmlns="http://www.w3.org/2000/svg" width="72.124" height="28.641" viewBox="0 0 72.124 28.641">
  <g id="Google_Pay" transform="translate(0)">
    <path id="Path_32681" data-name="Path 32681" d="M192.763,22.33v8.4H190.1V9.993h7.064a6.387,6.387,0,0,1,4.574,1.795,5.77,5.77,0,0,1,1.911,4.375,5.744,5.744,0,0,1-1.911,4.4,6.368,6.368,0,0,1-4.574,1.765h-4.4Zm0-9.785v7.237h4.466a3.585,3.585,0,0,0,2.635-6.139,3.474,3.474,0,0,0-2.635-1.1h-4.466Z" transform="translate(-158.654 -8.338)" fill="#5f6368"/>
    <path id="Path_32682" data-name="Path 32682" d="M277.841,46.78a6.6,6.6,0,0,1,4.662,1.578,5.6,5.6,0,0,1,1.707,4.327v8.743h-2.547V59.46h-.116a5.088,5.088,0,0,1-4.4,2.432,5.721,5.721,0,0,1-3.922-1.39,4.437,4.437,0,0,1-1.578-3.474,4.213,4.213,0,0,1,1.664-3.5,7.037,7.037,0,0,1,4.443-1.3,7.864,7.864,0,0,1,3.907.868v-.609a3.032,3.032,0,0,0-1.1-2.357,3.772,3.772,0,0,0-2.571-.971,4.077,4.077,0,0,0-3.532,1.883l-2.346-1.477A6.529,6.529,0,0,1,277.841,46.78ZM274.4,57.086a2.127,2.127,0,0,0,.883,1.737,3.249,3.249,0,0,0,2.069.695,4.247,4.247,0,0,0,3-1.244,3.891,3.891,0,0,0,1.323-2.923,5.44,5.44,0,0,0-3.474-.993,4.5,4.5,0,0,0-2.706.782A2.334,2.334,0,0,0,274.4,57.086Z" transform="translate(-226.71 -39.041)" fill="#5f6368"/>
    <path id="Path_32683" data-name="Path 32683" d="M364.41,49.58l-8.893,20.438h-2.749l3.3-7.151L350.22,49.58h2.895l4.227,10.19h.058l4.111-10.19Z" transform="translate(-292.286 -41.378)" fill="#5f6368"/>
    <path id="Path_32684" data-name="Path 32684" d="M83.437,61.422A14.191,14.191,0,0,0,83.232,59H72v4.587h6.433a5.514,5.514,0,0,1-2.379,3.619v2.978h3.839A11.648,11.648,0,0,0,83.437,61.422Z" transform="translate(-60.09 -49.239)" fill="#4285f4"/>
    <path id="Path_32685" data-name="Path 32685" d="M18.312,95.411a11.4,11.4,0,0,0,7.894-2.875l-3.839-2.978A7.224,7.224,0,0,1,11.625,85.78H7.67v3.069A11.91,11.91,0,0,0,18.312,95.411Z" transform="translate(-6.402 -71.589)" fill="#34a853"/>
    <path id="Path_32686" data-name="Path 32686" d="M5.227,47.3a7.136,7.136,0,0,1,0-4.559V39.67H1.272a11.911,11.911,0,0,0,0,10.7Z" transform="translate(-0.003 -33.107)" fill="#fbbc04"/>
    <path id="Path_32687" data-name="Path 32687" d="M18.313,4.711A6.466,6.466,0,0,1,22.882,6.5h0l3.4-3.4A11.444,11.444,0,0,0,18.313,0,11.91,11.91,0,0,0,7.671,6.558l3.955,3.069A7.124,7.124,0,0,1,18.313,4.711Z" transform="translate(-6.403 0.005)" fill="#ea4335"/>
  </g>
</svg>
