<svg xmlns="http://www.w3.org/2000/svg" width="31.547" height="31.547" viewBox="0 0 31.547 31.547">
  <g id="Group_963" data-name="Group 963" transform="translate(-805.105 -2054.227)">
    <g id="Group_962" data-name="Group 962" transform="translate(805.105 2054.227)">
      <g id="twitter-circular-button">
        <g id="Group_945" data-name="Group 945">
          <path id="Path_28648" data-name="Path 28648" d="M31.547,15.774A15.774,15.774,0,1,0,15.774,31.547,15.774,15.774,0,0,0,31.547,15.774Zm-30.113,0a14.34,14.34,0,1,1,14.34,14.34A14.339,14.339,0,0,1,1.434,15.774Z" fill="#686868"/>
        </g>
      </g>
    </g>
    <g id="Group_961" data-name="Group 961" transform="translate(717.292 1964.183)">
      <path id="Path_28668" data-name="Path 28668" d="M95.09,102.49c.057-.4.1-.809.173-1.209a4.436,4.436,0,0,1,4.313-3.89c2.764-.095,5.537-.1,8.3,0a4.442,4.442,0,0,1,4.387,4.44q.125,3.982,0,7.97a4.442,4.442,0,0,1-4.386,4.44c-2.764.1-5.537.1-8.3,0a4.519,4.519,0,0,1-4.394-4.452c-.014-.217-.061-.431-.092-.647V102.49Zm8.621,10.268c1.265,0,2.531.038,3.794-.009a3.086,3.086,0,0,0,3.245-3.234q.086-3.7,0-7.4a3.067,3.067,0,0,0-3.245-3.23q-3.769-.08-7.542,0a3.049,3.049,0,0,0-3.24,3.183q-.1,3.745,0,7.495a3.069,3.069,0,0,0,3.24,3.187c1.247.046,2.5.009,3.747.009Zm0,0" transform="translate(0 0)" fill="#686868"/>
      <path id="Path_28669" data-name="Path 28669" d="M178.385,174a4.392,4.392,0,1,0,4.392,4.392A4.392,4.392,0,0,0,178.385,174Zm0,7.272a2.88,2.88,0,1,1,2.88-2.88A2.88,2.88,0,0,1,178.385,181.268Zm0,0" transform="translate(-74.676 -72.572)" fill="#686868"/>
      <path id="Path_28670" data-name="Path 28670" d="M325.375,151.787a1.045,1.045,0,1,1-1.045-1.045A1.045,1.045,0,0,1,325.375,151.787Zm0,0" transform="translate(-215.974 -50.564)" fill="#686868"/>
    </g>
  </g>
</svg>
