<svg xmlns="http://www.w3.org/2000/svg" width="18.946" height="24.615" viewBox="0 0 18.946 24.615">
  <g id="Magic_sponge_logo_alone" data-name="Magic sponge logo alone" transform="translate(-35 -50.817)">
    <path id="Path_1190" data-name="Path 1190" d="M38.208,10.691a.069.069,0,0,1-.052-.056l-.078-.565a.023.023,0,0,0-.042,0l-.078.562a.065.065,0,0,1-.052.056l-.294.072a.023.023,0,0,0,0,.042l.294.072a.065.065,0,0,1,.052.056l.078.562a.023.023,0,0,0,.042,0l.078-.562a.069.069,0,0,1,.052-.056L38.5,10.8a.023.023,0,0,0,0-.042Z" transform="translate(9.684 44.049)" fill="#f9d100"/>
    <path id="Path_1191" data-name="Path 1191" d="M28.307,4.751a.075.075,0,0,1-.052-.059l-.078-.562a.023.023,0,0,0-.042,0l-.078.562A.069.069,0,0,1,28,4.751l-.294.072c-.02,0-.02.033,0,.039L28,4.934a.065.065,0,0,1,.052.056l.065.565a.023.023,0,0,0,.042,0l.078-.565a.069.069,0,0,1,.052-.056l.294-.072a.023.023,0,0,0,0-.042Z" transform="translate(16.351 48.048)" fill="#f9d100"/>
    <path id="Path_1192" data-name="Path 1192" d="M35.246,1.032a.114.114,0,0,1-.088-.095C35.141.761,35.07.32,35.03.023a.033.033,0,1,0-.065,0l-.131.915a.111.111,0,0,1-.085.095l-.477.118a.033.033,0,0,0,0,.065l.477.114a.114.114,0,0,1,.085.095l.131.915a.033.033,0,1,0,.065,0l.127-.915a.118.118,0,0,1,.088-.095l.477-.114a.033.033,0,0,0,0-.065Z" transform="translate(11.943 50.827)" fill="#f9d100"/>
    <path id="Subtraction_4" data-name="Subtraction 4" d="M9.367,19.368h0a2.288,2.288,0,0,1-1.79-.665A2.508,2.508,0,0,1,7.07,16.83v-.01A9.828,9.828,0,0,0,4.519,9.88a10.753,10.753,0,0,0-2.7-2.205A2.773,2.773,0,0,1,.006,5.523,4.484,4.484,0,0,1,1.471,2.5,11.943,11.943,0,0,1,3.063,1.08C3.429.821,4.371.292,4.9,0l.294,1.375,8.978,16.406a11.813,11.813,0,0,1-1.767.882A8.778,8.778,0,0,1,9.367,19.368ZM10.689,5.7,8.234,1.02A30.507,30.507,0,0,1,10.69,5.7Z" transform="translate(35 56.063)" fill="#b89b03"/>
    <path id="Path_1185" data-name="Path 1185" d="M9.5,13.245S4.7,16.793,8.977,19.451a12.518,12.518,0,0,1,5.285,9.178c0,.029-.18,3.92,4.749,2.2a9.393,9.393,0,0,0,4.3-3.266s1.633-2.234-1.094-3.763a12.728,12.728,0,0,1-5.03-7.441l-.349-2.133a2.62,2.62,0,0,0-2.218-2.564C14.65,11.652,12.324,11.158,9.5,13.245Z" transform="translate(30.148 43.006)" fill="#f9d100"/>
    <ellipse id="Ellipse_331" data-name="Ellipse 331" cx="0.252" cy="0.519" rx="0.252" ry="0.519" transform="translate(43.195 62.035) rotate(-30.669)" fill="#b89b03" opacity="0.5"/>
    <path id="Path_1193" data-name="Path 1193" d="M25.877,34.667c-.134-.232-.327-.376-.405-.327h0a.653.653,0,0,0,.1.5.683.683,0,0,0,.372.327h0C26.05,35.124,26.014,34.9,25.877,34.667Z" transform="translate(17.904 27.657)" fill="#b89b03"/>
    <ellipse id="Ellipse_327" data-name="Ellipse 327" cx="0.252" cy="0.519" rx="0.252" ry="0.519" transform="translate(39.442 59.969) rotate(-30.37)" fill="#b89b03" opacity="0.5"/>
    <path id="Path_1186" data-name="Path 1186" d="M14.472,28.127c-.134-.232-.327-.376-.408-.327h0a.8.8,0,0,0,.474.83h0C14.641,28.584,14.606,28.356,14.472,28.127Z" transform="translate(25.539 32.106)" fill="#b89b03"/>
    <ellipse id="Ellipse_328" data-name="Ellipse 328" cx="0.252" cy="0.519" rx="0.252" ry="0.519" transform="translate(41.855 58.139) rotate(-30.37)" fill="#b89b03" opacity="0.5"/>
    <path id="Path_1187" data-name="Path 1187" d="M21.847,22.529c-.134-.229-.327-.372-.405-.327h0a.653.653,0,0,0,.1.5.673.673,0,0,0,.372.327h0C22.02,22.986,21.984,22.758,21.847,22.529Z" transform="translate(20.57 35.875)" fill="#b89b03"/>
    <ellipse id="Ellipse_332" data-name="Ellipse 332" cx="0.336" cy="0.689" rx="0.336" ry="0.689" transform="translate(46.28 62.585) rotate(-30.37)" fill="#b89b03" opacity="0.5"/>
    <path id="Path_1194" data-name="Path 1194" d="M35.7,36.184c-.18-.3-.421-.5-.539-.425h0a.869.869,0,0,0,.137.653.9.9,0,0,0,.493.444h.02C35.923,36.807,35.874,36.481,35.7,36.184Z" transform="translate(11.335 26.751)" fill="#b89b03"/>
    <ellipse id="Ellipse_333" data-name="Ellipse 333" cx="0.252" cy="0.519" rx="0.252" ry="0.519" transform="translate(44.829 66.782) rotate(-30.37)" fill="#b89b03" opacity="0.5"/>
    <path id="Path_1195" data-name="Path 1195" d="M30.962,48.989c-.134-.229-.327-.372-.408-.327h0a.653.653,0,0,0,.1.5.676.676,0,0,0,.369.327h0C31.131,49.45,31.1,49.221,30.962,48.989Z" transform="translate(14.434 18.058)" fill="#b89b03"/>
    <ellipse id="Ellipse_334" data-name="Ellipse 334" cx="0.252" cy="0.519" rx="0.252" ry="0.519" transform="translate(51.829 67.752) rotate(-49.76)" fill="#919100" opacity="0.5"/>
    <path id="Path_1196" data-name="Path 1196" d="M52.41,51.589c-.2-.173-.421-.248-.49-.167h0a.8.8,0,0,0,.725.63h0C52.723,51.974,52.6,51.771,52.41,51.589Z" transform="translate(0.038 16.216)" fill="#919100"/>
    <ellipse id="Ellipse_342" data-name="Ellipse 342" cx="0.252" cy="0.519" rx="0.252" ry="0.519" transform="translate(46.471 70.957) rotate(-30.37)" fill="#b89b03" opacity="0.5"/>
    <path id="Path_1205" data-name="Path 1205" d="M35.988,61.779c-.134-.229-.327-.372-.405-.327h0a.653.653,0,0,0,.1.5.683.683,0,0,0,.372.327h0C36.158,62.24,36.122,62.011,35.988,61.779Z" transform="translate(11.048 9.445)" fill="#b89b03"/>
    <ellipse id="Ellipse_335" data-name="Ellipse 335" cx="0.252" cy="0.519" rx="0.252" ry="0.519" transform="translate(47.424 67.148) rotate(-30.37)" fill="#b89b03" opacity="0.5"/>
    <path id="Path_1197" data-name="Path 1197" d="M38.907,50.109c-.134-.229-.327-.372-.405-.327h0a.653.653,0,0,0,.1.5.683.683,0,0,0,.372.327h0C39.08,50.57,39.041,50.341,38.907,50.109Z" transform="translate(9.083 17.303)" fill="#b89b03"/>
    <ellipse id="Ellipse_343" data-name="Ellipse 343" cx="0.101" cy="0.206" rx="0.101" ry="0.206" transform="translate(50.831 69.827) rotate(-49.76)" fill="#b89b03" opacity="0.5"/>
    <path id="Path_1206" data-name="Path 1206" d="M48.833,58.1c-.082-.069-.167-.1-.193-.065h0a.238.238,0,0,0,.1.173.258.258,0,0,0,.18.078h0C48.957,58.248,48.914,58.166,48.833,58.1Z" transform="translate(2.247 11.752)" fill="#919100"/>
    <ellipse id="Ellipse_336" data-name="Ellipse 336" cx="0.101" cy="0.206" rx="0.101" ry="0.206" transform="translate(50.115 66.496) rotate(-49.76)" fill="#b89b03" opacity="0.5"/>
    <path id="Path_1198" data-name="Path 1198" d="M46.6,47.9c-.082-.065-.167-.1-.193-.065h0a.265.265,0,0,0,.1.173.271.271,0,0,0,.183.078h0C46.74,48.049,46.694,47.968,46.6,47.9Z" transform="translate(3.748 18.619)" fill="#b89b03"/>
    <ellipse id="Ellipse_337" data-name="Ellipse 337" cx="0.101" cy="0.206" rx="0.101" ry="0.206" transform="translate(45.595 64.784) rotate(-30.669)" fill="#b89b03" opacity="0.5"/>
    <path id="Path_1199" data-name="Path 1199" d="M32.66,43.059c-.052-.091-.124-.147-.16-.127h0a.258.258,0,0,0,.042.2.278.278,0,0,0,.147.134h0C32.735,43.242,32.722,43.151,32.66,43.059Z" transform="translate(13.186 21.836)" fill="#b89b03"/>
    <ellipse id="Ellipse_338" data-name="Ellipse 338" cx="0.101" cy="0.206" rx="0.101" ry="0.206" transform="translate(43.186 64.557) rotate(-30.37)" fill="#b89b03" opacity="0.5"/>
    <path id="Path_1200" data-name="Path 1200" d="M25.41,42.1c-.056-.091-.127-.147-.16-.127h0a.258.258,0,0,0,.042.2.278.278,0,0,0,.147.134h0C25.492,42.279,25.462,42.191,25.41,42.1Z" transform="translate(18 22.56)" fill="#b89b03"/>
    <ellipse id="Ellipse_344" data-name="Ellipse 344" cx="0.101" cy="0.206" rx="0.101" ry="0.206" transform="translate(45.384 69.308) rotate(-30.37)" fill="#b89b03" opacity="0.5"/>
    <path id="Path_1207" data-name="Path 1207" d="M32.138,56.657c-.052-.091-.124-.15-.16-.127h0a.248.248,0,0,0,.042.2.265.265,0,0,0,.144.131h0C32.207,56.837,32.194,56.745,32.138,56.657Z" transform="translate(13.47 12.758)" fill="#b89b03"/>
    <ellipse id="Ellipse_339" data-name="Ellipse 339" cx="0.101" cy="0.206" rx="0.101" ry="0.206" transform="translate(44.692 59.873) rotate(-30.37)" fill="#b89b03" opacity="0.5"/>
    <path id="Path_1201" data-name="Path 1201" d="M30.018,27.729c-.052-.091-.124-.147-.16-.127h0a.245.245,0,0,0,.042.2.251.251,0,0,0,.144.131h0C30.087,27.922,30.074,27.834,30.018,27.729Z" transform="translate(14.898 32.236)" fill="#b89b03"/>
    <ellipse id="Ellipse_329" data-name="Ellipse 329" cx="0.101" cy="0.206" rx="0.101" ry="0.206" transform="translate(41.666 60.388) rotate(-30.37)" fill="#b89b03" opacity="0.5"/>
    <path id="Path_1188" data-name="Path 1188" d="M20.758,29.347c-.052-.091-.124-.15-.16-.127h0a.258.258,0,0,0,.039.2.268.268,0,0,0,.147.131h0C20.827,29.527,20.811,29.435,20.758,29.347Z" transform="translate(21.133 31.148)" fill="#b89b03"/>
    <ellipse id="Ellipse_340" data-name="Ellipse 340" cx="0.101" cy="0.206" rx="0.101" ry="0.206" transform="translate(43.372 56.691) rotate(-30.37)" fill="#b89b03" opacity="0.5"/>
    <path id="Path_1202" data-name="Path 1202" d="M25.98,18.029c-.052-.091-.124-.147-.16-.127h0a.258.258,0,0,0,.042.2.248.248,0,0,0,.147.131h0C26.048,18.209,26.035,18.121,25.98,18.029Z" transform="translate(17.617 38.768)" fill="#b89b03"/>
    <ellipse id="Ellipse_330" data-name="Ellipse 330" cx="0.101" cy="0.206" rx="0.101" ry="0.206" transform="translate(40.029 57.791) rotate(-30.37)" fill="#b89b03" opacity="0.5"/>
    <path id="Path_1189" data-name="Path 1189" d="M15.743,21.389c-.056-.091-.127-.147-.163-.127h0a.258.258,0,0,0,.042.2.278.278,0,0,0,.147.134h0C15.808,21.572,15.8,21.481,15.743,21.389Z" transform="translate(24.512 36.505)" fill="#b89b03"/>
    <ellipse id="Ellipse_341" data-name="Ellipse 341" cx="0.252" cy="0.519" rx="0.252" ry="0.519" transform="translate(44.613 57.061) rotate(-30.669)" fill="#b89b03" opacity="0.5"/>
    <path id="Path_1203" data-name="Path 1203" d="M30.3,19.417c-.137-.232-.327-.376-.408-.327h0a.8.8,0,0,0,.474.83h0C30.471,19.874,30.436,19.646,30.3,19.417Z" transform="translate(14.879 37.971)" fill="#b89b03"/>
  </g>
</svg>
