<svg xmlns="http://www.w3.org/2000/svg" width="586.768" height="385.926" viewBox="0 0 586.768 385.926">
  <g id="Magic_sponge_admin_login_image" data-name="Magic sponge admin login image" transform="translate(1726 2202.475)">
    <g id="Group_1732" data-name="Group 1732" transform="translate(-1573.091 -2015.261)">
      <path id="Path_28826" data-name="Path 28826" d="M440.731,419.951c-58.869,13.105-124.351-10.781-160.955-58.714-8.3-10.871-15.374-25.49-9.31-37.752,5.662-11.451,21.131-15.272,33.268-11.289s21.4,13.826,29.006,24.088c-4.415-13.923-16.686-23.612-25.434-35.305s-13.382-29.835-2.772-39.87c6.554-6.2,16.938-6.808,25.423-3.747s15.468,9.176,22.043,15.348c39.762,37.32,73.626,83.834,83.446,137.475" transform="translate(-268.191 -255.566)" fill="#5ab3bf"/>
    </g>
    <g id="Group_1733" data-name="Group 1733" transform="translate(-1354.719 -2045.504)">
      <path id="Path_28827" data-name="Path 28827" d="M366.513,442.42c-2.987-33.878-5.967-68.077-1.564-101.8s16.866-67.4,40.864-91.5c4.6-4.62,11.865-9.035,17.12-5.175,4.315,3.167,3.9,9.67,2.671,14.877A111.4,111.4,0,0,1,403.6,303.406a77.488,77.488,0,0,1,39.219-40.143c8.437-3.789,19.356-5.637,26.139.651,6.457,5.988,5.738,16.986.652,24.173s-13.348,11.361-21.449,14.812-16.594,6.584-23.11,12.507A159.829,159.829,0,0,1,509.2,292.579c14,.183,30.969,4.71,34.407,18.289,3.407,13.468-9.943,26.01-23.528,28.927s-27.71-.226-41.575.64c-25.827,1.612-49.159,17.233-65.8,37.052s-27.59,43.675-38.343,67.215" transform="translate(-362.72 -242.475)" fill="#5ab3bf"/>
    </g>
    <g id="Group_1736" data-name="Group 1736" transform="translate(-1486.822 -2202.474)">
      <g id="Group_1735" data-name="Group 1735" transform="translate(0 0)">
        <rect id="Rectangle_876" data-name="Rectangle 876" width="188.584" height="368.188" rx="8.342" fill="#3e3e3e"/>
        <rect id="Rectangle_877" data-name="Rectangle 877" width="188.584" height="307.412" transform="translate(0 29.738)" fill="#fff" opacity="0.92"/>
      </g>
      <path id="Path_28829" data-name="Path 28829" d="M360.969,332.364a9.327,9.327,0,1,1-9.328-9.328A9.327,9.327,0,0,1,360.969,332.364Z" transform="translate(-257.35 20.039)"/>
      <path id="Path_28830" data-name="Path 28830" d="M339.935,182.741a2,2,0,1,1-2-2A2,2,0,0,1,339.935,182.741Z" transform="translate(-265.701 -166.381)"/>
      <rect id="Rectangle_878" data-name="Rectangle 878" width="34.593" height="3.995" rx="0.823" transform="translate(77.143 14.363)"/>
    </g>
    <g id="Group_1741" data-name="Group 1741" transform="translate(-1323.462 -1972.907)">
      <path id="Path_28833" data-name="Path 28833" d="M497.353,400.181H376.25l15.138-116.346h90.827Z" transform="translate(-376.25 -260.886)" fill="#f1592a"/>
      <path id="Path_28834" data-name="Path 28834" d="M485.664,376.551H407.931l9.717-74.68h58.3Z" transform="translate(-334.745 -237.257)" fill="#0048e1"/>
      <path id="Path_28835" data-name="Path 28835" d="M394.162,309.719V291.98A18.078,18.078,0,0,1,412.239,273.9h0a18.078,18.078,0,0,1,18.079,18.079v17.739" transform="translate(-352.784 -273.901)" fill="none" stroke="#333" stroke-linecap="round" stroke-miterlimit="10" stroke-width="2"/>
      <path id="Path_28836" data-name="Path 28836" d="M420.007,307.1V317.86a10.969,10.969,0,0,0,10.969,10.968h0a10.968,10.968,0,0,0,10.968-10.968V307.1" transform="translate(-318.925 -230.411)" fill="none" stroke="#333" stroke-linecap="round" stroke-miterlimit="10" stroke-width="2"/>
    </g>
    <g id="Group_1742" data-name="Group 1742" transform="translate(-1600.019 -2007.126)">
      <path id="Path_28837" data-name="Path 28837" d="M325.143,362.233l-68.608-4.276,14.383-92.632,51.456,3.207Z" transform="translate(-256.535 -250.918)" fill="#0048e1"/>
      <path id="Path_28838" data-name="Path 28838" d="M268.917,284.728l.885-14.2c.5-8,5.489-11.763,11.146-11.412h0c5.655.353,9.836,4.692,9.34,12.689l-.887,14.2" transform="translate(-240.312 -259.088)" fill="none" stroke="#333" stroke-linecap="round" stroke-miterlimit="10" stroke-width="2"/>
    </g>
    <g id="Group_1743" data-name="Group 1743" transform="translate(-1631.946 -2023.334)">
      <path id="Path_28839" data-name="Path 28839" d="M257.573,354.879l107.118,7.894a15.837,15.837,0,0,0,16.642-13.493l12.19-82.63a1.353,1.353,0,0,0-1.46-1.545L244.641,278.53a2.119,2.119,0,0,0-1.927,2.109v58.434A15.836,15.836,0,0,0,257.573,354.879Z" transform="translate(-242.714 -235.007)" fill="none" stroke="#f1592a" stroke-linecap="round" stroke-miterlimit="10" stroke-width="3"/>
      <path id="Path_28840" data-name="Path 28840" d="M366.21,306.769l11,24.5a9.637,9.637,0,0,1-9.171,12.6H249.17" transform="translate(-234.256 -180.413)" fill="none" stroke="#f1592a" stroke-linecap="round" stroke-miterlimit="10" stroke-width="3"/>
      <path id="Path_28841" data-name="Path 28841" d="M308,283.714,315,260.936a12.965,12.965,0,0,1,12.3-8.864h13.313" transform="translate(-157.187 -252.072)" fill="none" stroke="#f1592a" stroke-linecap="round" stroke-miterlimit="10" stroke-width="3"/>
      <line id="Line_203" data-name="Line 203" y2="8.901" transform="translate(113.838 165.885)" fill="none" stroke="#f1592a" stroke-linecap="round" stroke-miterlimit="10" stroke-width="3"/>
      <path id="Path_28842" data-name="Path 28842" d="M289.452,333.686a5.868,5.868,0,1,0,5.868-5.865A5.867,5.867,0,0,0,289.452,333.686Z" transform="translate(-181.482 -152.832)" fill="none" stroke="#f1592a" stroke-linecap="round" stroke-miterlimit="10" stroke-width="3"/>
      <line id="Line_204" data-name="Line 204" y2="8.901" transform="translate(30.289 165.885)" fill="none" stroke="#f1592a" stroke-linecap="round" stroke-miterlimit="10" stroke-width="3"/>
      <path id="Path_28843" data-name="Path 28843" d="M253.286,333.686a5.867,5.867,0,1,0,5.865-5.865A5.867,5.867,0,0,0,253.286,333.686Z" transform="translate(-228.863 -152.832)" fill="none" stroke="#f1592a" stroke-linecap="round" stroke-miterlimit="10" stroke-width="3"/>
      <line id="Line_205" data-name="Line 205" x1="143.719" transform="translate(2.043 65.848)" fill="none" stroke="#f1592a" stroke-linecap="round" stroke-miterlimit="10" stroke-width="3"/>
      <line id="Line_206" data-name="Line 206" x2="140.995" transform="translate(0.001 95.89)" fill="none" stroke="#f1592a" stroke-linecap="round" stroke-miterlimit="10" stroke-width="3"/>
      <line id="Line_207" data-name="Line 207" x1="11.987" y2="93.117" transform="translate(107.715 33.239)" fill="none" stroke="#f1592a" stroke-linecap="round" stroke-miterlimit="10" stroke-width="3"/>
      <line id="Line_208" data-name="Line 208" x2="1.011" y2="77.107" transform="translate(24.422 41.473)" fill="none" stroke="#f1592a" stroke-linecap="round" stroke-miterlimit="10" stroke-width="3"/>
      <line id="Line_209" data-name="Line 209" y2="84.349" transform="translate(56.269 38.573)" fill="none" stroke="#f1592a" stroke-linecap="round" stroke-miterlimit="10" stroke-width="3"/>
      <line id="Line_210" data-name="Line 210" x1="9.691" y2="87.317" transform="translate(79.169 35.605)" fill="none" stroke="#f1592a" stroke-linecap="round" stroke-miterlimit="10" stroke-width="3"/>
    </g>
    <line id="Line_211" data-name="Line 211" x2="586.768" transform="translate(-1726 -1834.286)" fill="none" stroke="#0036a9" stroke-miterlimit="10" stroke-width="1.5"/>
    <line id="Line_212" data-name="Line 212" x2="109.241" transform="translate(-1626.034 -1817.299)" fill="none" stroke="#0036a9" stroke-miterlimit="10" stroke-width="1.5"/>
    <line id="Line_213" data-name="Line 213" x2="159.132" transform="translate(-1383.203 -1817.299)" fill="none" stroke="#0036a9" stroke-miterlimit="10" stroke-width="1.5"/>
    <rect id="Rectangle_879" data-name="Rectangle 879" width="141.365" height="106.206" transform="translate(-1464.827 -2134.502)" fill="#fff"/>
    <rect id="Rectangle_880" data-name="Rectangle 880" width="141.365" height="106.206" transform="translate(-1464.827 -2008.1)" fill="#fff"/>
    <g id="Group_1745" data-name="Group 1745" transform="translate(-1390.486 -2113.059)">
      <g id="Group_1744" data-name="Group 1744" transform="translate(0 50.733)">
        <rect id="Rectangle_881" data-name="Rectangle 881" width="50.574" height="14.61" rx="3.009" fill="#0048e1"/>
      </g>
      <line id="Line_214" data-name="Line 214" x2="50.574" transform="translate(0 0)" fill="none" stroke="#0048e1" stroke-linecap="round" stroke-miterlimit="10" stroke-width="1.5"/>
      <line id="Line_215" data-name="Line 215" x2="50.574" transform="translate(0 6.878)" fill="none" stroke="#0048e1" stroke-linecap="round" stroke-miterlimit="10" stroke-width="1.5"/>
      <line id="Line_216" data-name="Line 216" x2="50.574" transform="translate(0 13.756)" fill="none" stroke="#0048e1" stroke-linecap="round" stroke-miterlimit="10" stroke-width="1.5"/>
      <line id="Line_217" data-name="Line 217" x2="45.719" transform="translate(0 20.634)" fill="none" stroke="#0048e1" stroke-linecap="round" stroke-miterlimit="10" stroke-width="1.5"/>
      <line id="Line_218" data-name="Line 218" x2="40.864" transform="translate(0 27.513)" fill="none" stroke="#0048e1" stroke-linecap="round" stroke-miterlimit="10" stroke-width="1.5"/>
      <line id="Line_219" data-name="Line 219" x2="25.287" transform="translate(0 34.391)" fill="none" stroke="#0048e1" stroke-linecap="round" stroke-miterlimit="10" stroke-width="1.5"/>
    </g>
    <g id="Group_1747" data-name="Group 1747" transform="translate(-1390.486 -1987.247)">
      <g id="Group_1746" data-name="Group 1746" transform="translate(0 50.732)">
        <rect id="Rectangle_882" data-name="Rectangle 882" width="50.574" height="14.61" rx="3.009" fill="#0048e1"/>
      </g>
      <line id="Line_220" data-name="Line 220" x2="50.574" transform="translate(0 0)" fill="none" stroke="#0048e1" stroke-linecap="round" stroke-miterlimit="10" stroke-width="1.5"/>
      <line id="Line_221" data-name="Line 221" x2="50.574" transform="translate(0 6.878)" fill="none" stroke="#0048e1" stroke-linecap="round" stroke-miterlimit="10" stroke-width="1.5"/>
      <line id="Line_222" data-name="Line 222" x2="50.574" transform="translate(0 13.756)" fill="none" stroke="#0048e1" stroke-linecap="round" stroke-miterlimit="10" stroke-width="1.5"/>
      <line id="Line_223" data-name="Line 223" x2="45.719" transform="translate(0 20.634)" fill="none" stroke="#0048e1" stroke-linecap="round" stroke-miterlimit="10" stroke-width="1.5"/>
      <line id="Line_224" data-name="Line 224" x2="40.864" transform="translate(0 27.513)" fill="none" stroke="#0048e1" stroke-linecap="round" stroke-miterlimit="10" stroke-width="1.5"/>
      <line id="Line_225" data-name="Line 225" x2="25.287" transform="translate(0 34.391)" fill="none" stroke="#0048e1" stroke-linecap="round" stroke-miterlimit="10" stroke-width="1.5"/>
    </g>
    <rect id="Rectangle_883" data-name="Rectangle 883" width="30.031" height="41.582" transform="translate(-1442.956 -2113.594)" fill="#dfdfdf"/>
    <rect id="Rectangle_884" data-name="Rectangle 884" width="30.031" height="41.582" transform="translate(-1439.546 -1988.849)" fill="#dfdfdf"/>
  </g>
</svg>
