<svg xmlns="http://www.w3.org/2000/svg" width="377" height="424" viewBox="0 0 377 424">
  <g id="No_preview_available" data-name="No preview available" transform="translate(-1408 -236)">
    <g id="Rectangle_2189" data-name="Rectangle 2189" transform="translate(1408 236)" fill="#eceaea" stroke="#ccc" stroke-width="1">
      <rect width="377" height="424" stroke="none"/>
      <rect x="0.5" y="0.5" width="376" height="423" fill="none"/>
    </g>
    <g id="Group_3979" data-name="Group 3979" transform="translate(431 -280.433)">
      <text id="No_Preview_Available-2" data-name="No Preview Available" transform="translate(1108 756)" fill="#6d6d6d" font-size="12" font-family="Roboto-Regular, Roboto" letter-spacing="0.018em"><tspan x="0" y="0">No Preview Available</tspan></text>
      <g id="gallery_2_" data-name="gallery(2)" transform="translate(1146 671.856)">
        <g id="Group_3974" data-name="Group 3974" transform="translate(0 26.576)">
          <g id="Group_3973" data-name="Group 3973" transform="translate(0 0)">
            <path id="Path_28878" data-name="Path 28878" d="M177.971,159.668a3.982,3.982,0,1,0,3.982,3.982A3.982,3.982,0,0,0,177.971,159.668Zm0,6.068a2.086,2.086,0,1,1,0-4.172h0a2.086,2.086,0,1,1,0,4.172Z" transform="translate(-158.202 -147.592)" fill="#6d6d6d"/>
            <path id="Path_28879" data-name="Path 28879" d="M35.65,29.55,9.767,26.611a3.555,3.555,0,0,0-2.8.806A3.6,3.6,0,0,0,5.6,29.882l-.474,3.887H3.651A3.809,3.809,0,0,0,0,37.7V57.093a3.6,3.6,0,0,0,3.506,3.7H29.677a3.891,3.891,0,0,0,3.982-3.7v-.758a4.74,4.74,0,0,0,1.8-.758,3.935,3.935,0,0,0,1.375-2.56l2.181-19.246A3.84,3.84,0,0,0,35.65,29.55ZM31.763,57.093a2,2,0,0,1-2.086,1.8H3.651A1.707,1.707,0,0,1,1.9,57.238q0-.073,0-.146V53.585l7.348-5.4a2.275,2.275,0,0,1,2.939.142l5.167,4.551a4.456,4.456,0,0,0,2.8,1.043,4.314,4.314,0,0,0,2.275-.616l9.339-5.4v9.2Zm0-11.425-10.334,6.02a2.418,2.418,0,0,1-2.8-.237l-5.215-4.6a4.219,4.219,0,0,0-5.262-.19L1.9,51.214V37.7a1.914,1.914,0,0,1,1.754-2.038H29.677A2.181,2.181,0,0,1,31.763,37.7v7.964Zm5.359-12.155,0,.019L34.891,52.779a1.612,1.612,0,0,1-.616,1.28c-.19.19-.616.284-.616.379V37.7a4.077,4.077,0,0,0-3.982-3.935H7.017l.427-3.7a2.181,2.181,0,0,1,.711-1.233,2.181,2.181,0,0,1,1.422-.379l25.836,2.986A1.9,1.9,0,0,1,37.121,33.513Z" transform="translate(0 -26.576)" fill="#6d6d6d"/>
          </g>
        </g>
      </g>
    </g>
  </g>
</svg>
