<svg xmlns="http://www.w3.org/2000/svg" width="106.292" height="27.164" viewBox="0 0 106.292 27.164">
  <g id="paypal" transform="translate(0 0)">
    <path id="Path_32688" data-name="Path 32688" d="M356.142,221.2h-5.736a1.121,1.121,0,0,0-.844.675L347.2,236.722a.447.447,0,0,0,.506.506h3.037a.447.447,0,0,0,.506-.506l.675-4.218a.772.772,0,0,1,.844-.675h1.856q5.821,0,6.58-5.568a4.422,4.422,0,0,0-.675-3.712,6.8,6.8,0,0,0-4.387-1.35m.675,5.568c-.337,2.025-1.856,2.025-3.374,2.025H352.43l.675-3.881c0-.169.169-.337.506-.337h.337c1.012,0,2.025,0,2.531.675.337.169.337.675.337,1.518" transform="translate(-273.977 -214.114)" fill="#139ad6"/>
    <g id="Group_1098" data-name="Group 1098" transform="translate(31.888 7.086)">
      <path id="Path_32689" data-name="Path 32689" d="M160.142,221.2h-5.736a1.121,1.121,0,0,0-.844.675L151.2,236.722a.447.447,0,0,0,.506.506h2.7a1.121,1.121,0,0,0,.844-.675l.675-4.049a.772.772,0,0,1,.844-.675h1.856q5.821,0,6.58-5.568a4.422,4.422,0,0,0-.675-3.712,6.485,6.485,0,0,0-4.387-1.35m.675,5.568c-.337,2.025-1.856,2.025-3.374,2.025H156.6l.675-3.881c0-.169.169-.337.506-.337h.337c1.012,0,2.025,0,2.531.675a1.807,1.807,0,0,1,.169,1.518" transform="translate(-151.2 -221.2)" fill="#263b80"/>
      <path id="Path_32690" data-name="Path 32690" d="M227,245.537h-2.7c-.169,0-.506.169-.506.337l-.169.844-.169-.337a3.969,3.969,0,0,0-3.206-1.181A6.483,6.483,0,0,0,214,250.768a5.029,5.029,0,0,0,1.012,4.218,4.252,4.252,0,0,0,3.543,1.35,5.393,5.393,0,0,0,3.881-1.518l-.169.844a.447.447,0,0,0,.506.506h2.531a1.121,1.121,0,0,0,.844-.675l1.518-9.448c-.169-.169-.506-.506-.675-.506m-3.881,5.4a3.263,3.263,0,0,1-3.206,2.7,2.7,2.7,0,0,1-1.856-.675,3.6,3.6,0,0,1-.506-2.025,3.009,3.009,0,0,1,4.893-2.025,2.946,2.946,0,0,1,.675,2.025" transform="translate(-200.676 -240.138)" fill="#263b80"/>
    </g>
    <path id="Path_32691" data-name="Path 32691" d="M422.2,245.537h-2.7c-.169,0-.506.169-.506.337l-.169.844-.169-.337a3.969,3.969,0,0,0-3.206-1.181,6.483,6.483,0,0,0-6.243,5.568,5.029,5.029,0,0,0,1.012,4.218,4.252,4.252,0,0,0,3.543,1.35,5.393,5.393,0,0,0,3.88-1.518l-.169.844a.447.447,0,0,0,.506.506h2.531a1.121,1.121,0,0,0,.844-.675l1.518-9.448c-.169-.169-.337-.506-.675-.506m-3.881,5.4a3.263,3.263,0,0,1-3.206,2.7,2.7,2.7,0,0,1-1.856-.675,3.6,3.6,0,0,1-.506-2.025,3.009,3.009,0,0,1,4.893-2.025,1.936,1.936,0,0,1,.675,2.025" transform="translate(-322.821 -233.052)" fill="#139ad6"/>
    <path id="Path_32692" data-name="Path 32692" d="M296.991,246.8h-2.868a.876.876,0,0,0-.675.337l-3.712,5.736-1.687-5.4a.779.779,0,0,0-.844-.506h-2.7c-.337,0-.506.337-.506.675l3.037,8.942-2.868,4.049c-.169.337,0,.844.337.844h2.7a.877.877,0,0,0,.675-.337l9.279-13.329c.506-.506.169-1.012-.169-1.012" transform="translate(-224.105 -234.315)" fill="#263b80"/>
    <path id="Path_32693" data-name="Path 32693" d="M477.562,222.09,475.2,237.274a.447.447,0,0,0,.506.506h2.362a1.121,1.121,0,0,0,.844-.675l2.362-14.847a.447.447,0,0,0-.506-.506h-2.7c-.169-.169-.337,0-.506.337" transform="translate(-374.982 -214.497)" fill="#139ad6"/>
    <path id="Path_32694" data-name="Path 32694" d="M19.4,189.625c-1.181-1.35-3.374-2.025-6.411-2.025H4.555a1.447,1.447,0,0,0-1.181,1.012L0,210.714a.772.772,0,0,0,.675.844h5.23l1.35-8.267v.337a1.447,1.447,0,0,1,1.181-1.012h2.531c4.893,0,8.6-2.025,9.786-7.592v-.506h0c.169-2.193-.169-3.543-1.35-4.893" transform="translate(0 -187.6)" fill="#263b80"/>
    <path id="Path_32695" data-name="Path 32695" d="M40.785,220.4h0v.506C39.6,226.643,35.892,228.5,31,228.5H28.468a1.447,1.447,0,0,0-1.181,1.012L25.6,239.8a.618.618,0,0,0,.675.675h4.387a.945.945,0,0,0,1.012-.844v-.169l.844-5.23V233.9a.945.945,0,0,1,1.012-.844H34.2c4.218,0,7.592-1.687,8.436-6.749.337-2.025.169-3.881-.844-5.062a1.728,1.728,0,0,0-1.012-.844" transform="translate(-20.201 -213.483)" fill="#139ad6"/>
    <path id="Path_32696" data-name="Path 32696" d="M46.548,216.106c-.169,0-.337-.169-.506-.169a.62.62,0,0,1-.506-.169,8.913,8.913,0,0,0-2.193-.169h-6.58a.62.62,0,0,0-.506.169.928.928,0,0,0-.506.844l-1.35,8.773v.337a1.447,1.447,0,0,1,1.181-1.012h2.531c4.893,0,8.6-2.025,9.786-7.592a.62.62,0,0,1,.169-.506c-.337-.169-.506-.337-.844-.337-.506-.169-.506-.169-.675-.169" transform="translate(-27.145 -209.695)" fill="#232c65"/>
  </g>
</svg>
