<svg xmlns="http://www.w3.org/2000/svg" width="11.322" height="15.845" viewBox="0 0 11.322 15.845">
  <path id="Pound-sign-white" d="M5.468-6.424l.075,1.891A3.825,3.825,0,0,1,4.855-2.17h7.477L12.321,0H1.053V-2.17h.881a.989.989,0,0,0,.65-.693,4.44,4.44,0,0,0,.231-1.574L2.739-6.424H1.01V-8.562H2.675l-.086-2.6a4.466,4.466,0,0,1,1.343-3.427,4.948,4.948,0,0,1,3.523-1.257,4.8,4.8,0,0,1,3.427,1.171,4.113,4.113,0,0,1,1.246,3.147H9.5a2.142,2.142,0,0,0-.564-1.584,2.127,2.127,0,0,0-1.574-.564,1.822,1.822,0,0,0-1.509.7A2.836,2.836,0,0,0,5.3-11.161l.1,2.6H8.733v2.138Z" transform="translate(-1.01 15.845)" fill="#fff"/>
</svg>
