<svg xmlns="http://www.w3.org/2000/svg" width="29.771" height="33.672" viewBox="0 0 29.771 33.672">
  <g id="Share" transform="translate(-1693.132 -168.445)">
    <g id="share-option" transform="translate(1697.659 141.037)">
      <path id="Path_32699" data-name="Path 32699" d="M22.074,34.019,15.7,27.645a.8.8,0,0,0-1.357.56v3.187H11.553q-8.877,0-10.894,5.017A11.337,11.337,0,0,0,0,40.555,14.95,14.95,0,0,0,1.581,46.17q.037.087.131.3t.168.373a1.415,1.415,0,0,0,.162.274.426.426,0,0,0,.349.212.364.364,0,0,0,.293-.124.464.464,0,0,0,.106-.311,2.535,2.535,0,0,0-.031-.33,2.575,2.575,0,0,1-.031-.293q-.062-.846-.062-1.531a10.6,10.6,0,0,1,.218-2.253,6.766,6.766,0,0,1,.6-1.724,4.331,4.331,0,0,1,1-1.257A5.845,5.845,0,0,1,5.8,38.638a7.121,7.121,0,0,1,1.656-.529,15.787,15.787,0,0,1,1.917-.268q.965-.075,2.185-.075h2.789v3.187a.792.792,0,0,0,1.357.56l6.374-6.375a.782.782,0,0,0,0-1.121Z" transform="translate(0 0)" fill="#999"/>
    </g>
    <path id="Path_32721" data-name="Path 32721" d="M-11.833-3.8a5.29,5.29,0,0,1-2.106-1.022,1.954,1.954,0,0,1-.659-1.5,2.064,2.064,0,0,1,.806-1.667A3.2,3.2,0,0,1-11.7-8.648a3.5,3.5,0,0,1,1.567.34,2.577,2.577,0,0,1,1.066.938,2.4,2.4,0,0,1,.378,1.307H-9.817a1.56,1.56,0,0,0-.492-1.22A2,2,0,0,0-11.7-7.729a2.049,2.049,0,0,0-1.3.367,1.224,1.224,0,0,0-.466,1.018,1.1,1.1,0,0,0,.442.883,4.339,4.339,0,0,0,1.506.66,6.987,6.987,0,0,1,1.664.66,2.525,2.525,0,0,1,.891.841,2.146,2.146,0,0,1,.29,1.131A1.993,1.993,0,0,1-9.478-.507,3.448,3.448,0,0,1-11.64.117,4.01,4.01,0,0,1-13.28-.22a2.761,2.761,0,0,1-1.175-.923,2.252,2.252,0,0,1-.413-1.33h1.131a1.469,1.469,0,0,0,.571,1.222A2.4,2.4,0,0,0-11.64-.8a2.211,2.211,0,0,0,1.365-.363,1.18,1.18,0,0,0,.475-.99,1.158,1.158,0,0,0-.439-.97A5.066,5.066,0,0,0-11.833-3.8Zm5.52-1.77a2.3,2.3,0,0,1,1.875-.885q2.01,0,2.027,2.268V0H-3.5V-4.2a1.459,1.459,0,0,0-.313-1.014,1.256,1.256,0,0,0-.958-.328,1.564,1.564,0,0,0-.926.281,1.91,1.91,0,0,0-.621.738V0H-7.4V-9h1.084ZM3.126,0a2.277,2.277,0,0,1-.152-.668,2.419,2.419,0,0,1-1.8.785A2.238,2.238,0,0,1-.369-.413a1.716,1.716,0,0,1-.6-1.345A1.792,1.792,0,0,1-.217-3.3,3.55,3.55,0,0,1,1.9-3.844H2.956v-.5a1.217,1.217,0,0,0-.34-.905,1.366,1.366,0,0,0-1-.337,1.581,1.581,0,0,0-.973.293.863.863,0,0,0-.393.709H-.841A1.5,1.5,0,0,1-.5-5.5,2.3,2.3,0,0,1,.41-6.2a3.075,3.075,0,0,1,1.269-.258A2.506,2.506,0,0,1,3.4-5.909,1.976,1.976,0,0,1,4.04-4.4v2.918A3.567,3.567,0,0,0,4.263-.094V0Zm-1.8-.826a1.905,1.905,0,0,0,.967-.264,1.6,1.6,0,0,0,.662-.686v-1.3h-.85Q.114-3.076.114-1.91a.987.987,0,0,0,.34.8A1.306,1.306,0,0,0,1.327-.826ZM8.8-5.367a3.248,3.248,0,0,0-.533-.041A1.428,1.428,0,0,0,6.823-4.5V0H5.739V-6.34H6.794l.018.732a1.688,1.688,0,0,1,1.512-.85,1.107,1.107,0,0,1,.48.082ZM12.431.117a2.77,2.77,0,0,1-2.1-.847,3.142,3.142,0,0,1-.809-2.265v-.2a3.8,3.8,0,0,1,.36-1.685,2.811,2.811,0,0,1,1.008-1.16,2.534,2.534,0,0,1,1.4-.419,2.374,2.374,0,0,1,1.922.814A3.526,3.526,0,0,1,14.9-3.311v.451H10.608a2.254,2.254,0,0,0,.548,1.515,1.722,1.722,0,0,0,1.333.577A1.888,1.888,0,0,0,13.462-1a2.444,2.444,0,0,0,.7-.621l.662.516A2.662,2.662,0,0,1,12.431.117ZM12.3-5.566a1.446,1.446,0,0,0-1.1.478,2.321,2.321,0,0,0-.551,1.339h3.176v-.082a2.065,2.065,0,0,0-.445-1.28A1.361,1.361,0,0,0,12.3-5.566Z" transform="translate(1708 202)" fill="#999"/>
  </g>
</svg>
