<?xml version="1.0" encoding="iso-8859-1"?>
<!-- Generator: Adobe Illustrator 19.0.0, SVG Export Plug-In . SVG Version: 6.00 Build 0)  -->
<svg version="1.1" id="Capa_1" xmlns="http://www.w3.org/2000/svg" xmlns:xlink="http://www.w3.org/1999/xlink" x="0px" y="0px"
	 viewBox="0 0 511.998 511.998" style="enable-background:new 0 0 511.998 511.998;" xml:space="preserve">
<path style="fill:#F2D422;" d="M503.652,270.198c-2.786-7.378-9.888-7.723-13.413-7.381c-0.912,0.185-2.042,0.319-2.042,0.319
	l-0.002-0.012c-17.014,1.72-28.177-17.385-18.404-31.412l-0.023,0.007c0,0,0.028-0.029,0.072-0.074
	c0.763-1.087,6.643-7.254,1.541-12.09c-11.189-11.19-25.05-21.133-42.128-28.865c-64.974-23.689-92.907-71.514-103.02-94.71
	c-1.967-6.141-4.067-11.381-4.933-13.242C282.251-6.181,165.271-28.435,96.239,40.597l-55.629,55.63
	c-71.687,71.687-43.83,192.363,47.377,227.186c6.327,1.959,10.708-0.789,13.202-3.313c0.745-1.13,1.567-2.225,2.492-3.263
	c0-0.001,0.001-0.003,0.001-0.003h0.001c11.402-12.806,31.368-13.445,43.608-1.208c8.545,8.545,10.834,20.949,6.927,31.593
	l0.028-0.006c0,0-0.022,0.031-0.052,0.076c-0.905,2.442-6.82,11.417,3.88,25.431c24.022,29.566,28.714,47.848,33.03,57.37
	c1.023,2.628,2.138,4.958,3.389,6.965c43.078,83.363,154.997,100.588,221.266,34.32l55.63-55.629
	C510.744,376.394,521.473,319.276,503.652,270.198z"/>
<path style="fill:#F2C406;" d="M214.801,423.857c-5.515-8.907-10.707-34.494-36.615-65.097c-0.63-1.03-8.909-10.754-5.633-21.887
	c0.948-1.766,1.774-3.945,1.774-3.945l-0.028,0.006c3.929-10.772,1.627-23.326-6.966-31.974
	c-12.332-12.408-32.417-11.712-43.855,1.222h-0.001c0,0-0.001,0.002-0.001,0.003c-2.368,2.675-2.404,3.954-5.81,5.831
	c23.604-6.845,45.044,16.069,36.553,39.201l0.028-0.006c0,0-0.022,0.031-0.052,0.076c-0.905,2.442-6.82,11.417,3.88,25.431
	c0.004,0.005,0.007,0.011,0.01,0.016c26.026,30.546,30.581,54.968,36.409,64.319c38.951,75.375,135.401,97.737,203.411,49.406
	C330.506,518.249,249.38,491.194,214.801,423.857z"/>
<g>
	<path style="fill:#F7AC16;" d="M116.811,167.649c11.647,11.645,11.649,30.522,0.01,42.163
		c-11.645,11.645-30.52,11.637-42.164-0.007c-11.641-11.641-11.645-30.512,0-42.156C86.296,156.006,105.172,156.007,116.811,167.649
		z"/>
	<path style="fill:#F7AC16;" d="M277.185,88.614c10.818,10.818,10.823,28.345,0.004,39.162
		c-10.818,10.82-28.356,10.827-39.175,0.009c-10.817-10.819-10.809-28.357,0.011-39.174
		C248.84,77.792,266.366,77.796,277.185,88.614z"/>
	<path style="fill:#F7AC16;" d="M240.331,182.304c16.016,16.013,16.016,41.984-0.008,58.008
		c-16.016,16.015-41.989,16.018-58.003,0.003c-16.029-16.027-16.02-41.998-0.006-58.011
		C198.337,166.28,224.304,166.275,240.331,182.304z"/>
	<path style="fill:#F7AC16;" d="M269.837,293.514c7.5,7.497,7.51,19.656,0.004,27.162c-7.502,7.503-19.664,7.494-27.162-0.005
		c-7.504-7.501-7.507-19.66-0.004-27.161C250.181,286.004,262.335,286.011,269.837,293.514z"/>
	<path style="fill:#F7AC16;" d="M434.164,310.477c17.079,17.079,17.079,44.768,0,61.845c-17.074,17.075-44.759,17.07-61.836-0.008
		c-17.07-17.069-17.07-44.751,0.004-61.824C389.41,293.413,417.095,293.409,434.164,310.477z"/>
</g>
<g>
	<path style="fill:#EDA018;" d="M110.159,162.643c-11.333-6.276-25.885-4.613-35.503,5.006c-11.645,11.644-11.641,30.515,0,42.156
		c9.621,9.621,24.176,11.29,35.513,5.013C89.629,203.449,89.718,173.963,110.159,162.643z"/>
	<path style="fill:#EDA018;" d="M272.028,84.557c-10.664-6.522-24.775-5.176-34.003,4.054
		c-10.821,10.817-10.828,28.356-0.011,39.174c9.229,9.227,23.343,10.572,34.008,4.055C254.312,121.02,254.39,95.346,272.028,84.557z
		"/>
	<path style="fill:#EDA018;" d="M229.354,174.462c-15.311-7.496-34.31-4.887-47.039,7.842
		c-16.014,16.013-16.023,41.984,0.006,58.011c12.721,12.722,31.722,15.324,47.029,7.834
		C198.657,233.127,198.845,189.396,229.354,174.462z"/>
	<path style="fill:#EDA018;" d="M421.289,301.565c-16.102-7.285-35.716-4.316-48.957,8.925
		c-17.074,17.074-17.074,44.756-0.004,61.824c13.24,13.24,32.852,16.21,48.955,8.924
		C386.962,365.716,387.216,316.976,421.289,301.565z"/>
</g>
<g>
	<path style="fill:#F7AC16;" d="M322.546,396.493c10,10,10,26.218,0.001,36.218c-9.999,10-26.223,10.004-36.222,0.004
		c-10.004-10.004-9.995-26.222,0.005-36.222C296.328,386.494,312.542,386.491,322.546,396.493z"/>
	<path style="fill:#F7AC16;" d="M366.722,223.796c7.854,7.853,7.851,20.588-0.007,28.445c-7.851,7.853-20.584,7.853-28.438,0
		c-7.856-7.857-7.86-20.592-0.008-28.445C346.125,215.938,358.867,215.939,366.722,223.796z"/>
</g>
<path style="fill:#F2C406;" d="M102.454,306.704C26.643,271.344-20.088,169.14,40.609,96.228l0,0
	c-69.084,69.084-46.723,186.04,42.139,225.06c5.7,2.549,12.142,5.187,18.44-1.188c0.745-1.13,1.567-2.225,2.492-3.263
	c0-0.001,0.001-0.003,0.001-0.003h0.001c2.878-3.232,6.428-5.793,10.404-7.52C109.94,310.086,106.719,308.579,102.454,306.704z"/>
<g>
</g>
<g>
</g>
<g>
</g>
<g>
</g>
<g>
</g>
<g>
</g>
<g>
</g>
<g>
</g>
<g>
</g>
<g>
</g>
<g>
</g>
<g>
</g>
<g>
</g>
<g>
</g>
<g>
</g>
</svg>
