<svg xmlns="http://www.w3.org/2000/svg" xmlns:xlink="http://www.w3.org/1999/xlink" width="244.642" height="36.268" viewBox="0 0 244.642 36.268">
  <defs>
    <linearGradient id="linear-gradient" y1="0.478" x2="1.179" y2="0.5" gradientUnits="objectBoundingBox">
      <stop offset="0" stop-color="#f9d100"/>
      <stop offset="1" stop-color="#ffa339"/>
    </linearGradient>
  </defs>
  <g id="The_Magic_Sponge_Logo" data-name="The Magic Sponge Logo" transform="translate(-35 -50.816)">
    <path id="Path_1204" data-name="Path 1204" d="M13.873-69.353a1.277,1.277,0,0,0,1.275-1.275,1.3,1.3,0,0,0-1.275-1.3H1.249A1.3,1.3,0,0,0,0-70.628a1.272,1.272,0,0,0,1.249,1.275H6.117v14a1.428,1.428,0,0,0,1.458,1.406,1.445,1.445,0,0,0,1.458-1.406v-14Zm3.071,14.108a1.311,1.311,0,0,0,1.327,1.3,1.328,1.328,0,0,0,1.327-1.3V-59.67a5.81,5.81,0,0,1,.625-2.759,2.956,2.956,0,0,1,2.707-1.562,2.542,2.542,0,0,1,1.9.677,3.758,3.758,0,0,1,.755,2.655v5.414a1.317,1.317,0,0,0,1.354,1.3,1.328,1.328,0,0,0,1.327-1.3V-61.31a4.906,4.906,0,0,0-1.38-3.852,5.017,5.017,0,0,0-3.436-1.119A4.535,4.535,0,0,0,19.6-64.459v-6.377a1.3,1.3,0,0,0-1.327-1.3,1.311,1.311,0,0,0-1.327,1.3Zm24.1-1.822c-.39,0-.677.234-1.249.495a5.688,5.688,0,0,1-2.369.521,3.57,3.57,0,0,1-2.811-1.171,3.7,3.7,0,0,1-.885-2.16h7.444a1.348,1.348,0,0,0,1.354-1.484,5.364,5.364,0,0,0-1.432-3.8,5.781,5.781,0,0,0-4.191-1.614,5.832,5.832,0,0,0-4.347,1.692,6.175,6.175,0,0,0-1.64,4.321,6.4,6.4,0,0,0,1.64,4.5,6.209,6.209,0,0,0,4.685,1.822,9.073,9.073,0,0,0,3.566-.7c.807-.364,1.223-.755,1.223-1.327A1.047,1.047,0,0,0,41.048-57.067Zm-7.314-4.139a3.591,3.591,0,0,1,.781-2,3.228,3.228,0,0,1,2.421-.937,3.05,3.05,0,0,1,2.238.885,3.2,3.2,0,0,1,.755,2.056Zm18.3-9.188v15.1a1.357,1.357,0,0,0,1.406,1.354A1.364,1.364,0,0,0,54.869-55.3V-66.88l4.763,7.887a1.594,1.594,0,0,0,1.432.885,1.594,1.594,0,0,0,1.432-.885l4.763-7.887V-55.3a1.357,1.357,0,0,0,1.406,1.354A1.364,1.364,0,0,0,70.1-55.3v-15.1a1.752,1.752,0,0,0-1.822-1.77,1.736,1.736,0,0,0-1.588.911L61.038-61.8l-5.6-9.448a1.765,1.765,0,0,0-1.588-.911A1.752,1.752,0,0,0,52.032-70.394ZM72.959-57.51c0,2.317,1.978,3.566,4.087,3.566a6.614,6.614,0,0,0,3.306-.729,1.324,1.324,0,0,0,1.223.729,1.328,1.328,0,0,0,1.327-1.3v-6.533a4.494,4.494,0,0,0-.989-3.176,4.743,4.743,0,0,0-3.618-1.327,9.076,9.076,0,0,0-3.358.651c-.755.312-1.38.677-1.38,1.354a.945.945,0,0,0,.963.963,3.37,3.37,0,0,0,1.275-.416,5.444,5.444,0,0,1,2.212-.495,2.169,2.169,0,0,1,1.744.677,2.614,2.614,0,0,1,.495,1.77v.312a17.683,17.683,0,0,0-5,.911A3.186,3.186,0,0,0,72.959-57.51ZM77.878-55.9c-1.223,0-2.369-.521-2.369-1.666,0-1.38,1.926-1.9,4.737-2.056v3.045A4.753,4.753,0,0,1,77.878-55.9Zm8.564,5.44c0,1.77,3.254,2.369,4.867,2.369a5.644,5.644,0,0,0,4.008-1.327,5.583,5.583,0,0,0,1.64-4.4V-64.98a1.334,1.334,0,0,0-1.353-1.3,1.343,1.343,0,0,0-1.275.963,6.426,6.426,0,0,0-3.28-.963,5.152,5.152,0,0,0-3.93,1.64,6.821,6.821,0,0,0-1.562,4.5,6.519,6.519,0,0,0,1.666,4.581A5.143,5.143,0,0,0,91.075-54a5.007,5.007,0,0,0,3.2-.937v1.588a3.118,3.118,0,0,1-.729,2.212,2.948,2.948,0,0,1-2.291.833,4,4,0,0,1-2.186-.625c-.729-.442-.885-.7-1.51-.7A1.139,1.139,0,0,0,86.442-50.456Zm4.945-5.752a2.73,2.73,0,0,1-2.212-.963,4.437,4.437,0,0,1-.885-2.967A4.426,4.426,0,0,1,89.175-63a2.856,2.856,0,0,1,2.265-.989A4.49,4.49,0,0,1,94.277-62.9v5.726A4.346,4.346,0,0,1,91.387-56.208Zm9.136-8.772v9.735a1.3,1.3,0,0,0,1.327,1.3,1.328,1.328,0,0,0,1.327-1.3V-64.98a1.311,1.311,0,0,0-1.327-1.3A1.311,1.311,0,0,0,100.524-64.98Zm1.327-4.946a1.528,1.528,0,0,0,1.536-1.562,1.522,1.522,0,0,0-1.536-1.536,1.528,1.528,0,0,0-1.562,1.536A1.534,1.534,0,0,0,101.851-69.926Zm14.706,5.57c0-.6-.39-.989-1.119-1.327a7.059,7.059,0,0,0-2.863-.573,6.569,6.569,0,0,0-5.206,2.291,5.851,5.851,0,0,0-1.327,3.852,6.075,6.075,0,0,0,1.588,4.321,6.532,6.532,0,0,0,4.893,1.848,7.532,7.532,0,0,0,2.629-.416c.911-.338,1.458-.729,1.458-1.38a1.1,1.1,0,0,0-1.067-1.119,2.5,2.5,0,0,0-1.067.338,5.021,5.021,0,0,1-1.874.338A3.717,3.717,0,0,1,109.79-57.3a3.974,3.974,0,0,1-1.015-2.785,3.928,3.928,0,0,1,.937-2.655,3.765,3.765,0,0,1,2.889-1.223,4.369,4.369,0,0,1,1.8.39,2.4,2.4,0,0,0,1.067.338A1.141,1.141,0,0,0,116.557-64.355Z" transform="translate(69.116 132.219)" fill="#4e4e4e"/>
    <path id="Path_1208" data-name="Path 1208" d="M15.993-67.4c0-1.952-4.425-2.291-5.544-2.291-4.243,0-6.533,1.952-6.533,4.815A4.349,4.349,0,0,0,6.363-60.84a37.823,37.823,0,0,0,4.893,1.8c1.3.521,2.238,1.2,2.238,2.395,0,1.406-.989,2.6-3.436,2.6-2.681,0-3.644-1.484-4.815-1.484a1.4,1.4,0,0,0-1.406,1.406c0,1.692,3.722,2.655,6.273,2.655,3.774,0,6.559-1.978,6.559-5.414a4.342,4.342,0,0,0-2.16-3.9,23.836,23.836,0,0,0-5.1-1.926c-1.432-.495-2.421-1.119-2.421-2.265,0-1.432,1.171-2.082,3.306-2.082,2.212,0,3.1,1.015,4.321,1.015A1.35,1.35,0,0,0,15.993-67.4Zm6.091,5.909a13.173,13.173,0,0,1,1.77-.13A4.129,4.129,0,0,1,26.848-60.5a4.007,4.007,0,0,1,1.041,2.863,3.958,3.958,0,0,1-1.067,2.993,3.887,3.887,0,0,1-2.707.989,4.627,4.627,0,0,1-2.03-.39ZM21.017-63.6a1.613,1.613,0,0,0-1.588,1.822v14.941a1.328,1.328,0,0,0,1.327,1.3,1.345,1.345,0,0,0,1.327-1.3v-5a6.412,6.412,0,0,0,2.291.364,6.281,6.281,0,0,0,4.711-1.9,6.153,6.153,0,0,0,1.458-4.269A5.824,5.824,0,0,0,28.8-62.011a7.4,7.4,0,0,0-5.206-1.8A15.417,15.417,0,0,0,21.017-63.6Zm14.316,5.961a4.066,4.066,0,0,1,1.015-2.785,3.6,3.6,0,0,1,2.681-1.145,3.589,3.589,0,0,1,2.655,1.145,4.084,4.084,0,0,1,1.041,2.785,4.085,4.085,0,0,1-1.041,2.785,3.589,3.589,0,0,1-2.655,1.145,3.6,3.6,0,0,1-2.681-1.145A4.066,4.066,0,0,1,35.333-57.639Zm-2.655,0a5.913,5.913,0,0,0,1.848,4.477,6.5,6.5,0,0,0,4.5,1.692,6.551,6.551,0,0,0,4.5-1.692,5.9,5.9,0,0,0,1.822-4.477,6.014,6.014,0,0,0-1.822-4.451,6.619,6.619,0,0,0-4.5-1.718,6.571,6.571,0,0,0-4.5,1.718A6.033,6.033,0,0,0,32.678-57.639Zm15.539,4.867a1.311,1.311,0,0,0,1.327,1.3,1.328,1.328,0,0,0,1.327-1.3V-57.2a5.81,5.81,0,0,1,.625-2.759A2.956,2.956,0,0,1,54.2-61.517a2.542,2.542,0,0,1,1.9.677,3.758,3.758,0,0,1,.755,2.655v5.414a1.317,1.317,0,0,0,1.354,1.3,1.328,1.328,0,0,0,1.327-1.3v-6.065a4.906,4.906,0,0,0-1.38-3.852,5.017,5.017,0,0,0-3.436-1.119,4.535,4.535,0,0,0-3.852,1.822v-.521a1.3,1.3,0,0,0-1.327-1.3,1.311,1.311,0,0,0-1.327,1.3ZM63.08-47.982c0,1.77,3.254,2.369,4.867,2.369a5.644,5.644,0,0,0,4.008-1.327,5.583,5.583,0,0,0,1.64-4.4V-62.506a1.334,1.334,0,0,0-1.354-1.3,1.343,1.343,0,0,0-1.275.963,6.426,6.426,0,0,0-3.28-.963,5.152,5.152,0,0,0-3.93,1.64,6.821,6.821,0,0,0-1.562,4.5,6.519,6.519,0,0,0,1.666,4.581,5.142,5.142,0,0,0,3.852,1.562,5.007,5.007,0,0,0,3.2-.937v1.588a3.118,3.118,0,0,1-.729,2.212,2.948,2.948,0,0,1-2.291.833,4,4,0,0,1-2.186-.625c-.729-.442-.885-.7-1.51-.7A1.139,1.139,0,0,0,63.08-47.982Zm4.945-5.752a2.73,2.73,0,0,1-2.212-.963,4.437,4.437,0,0,1-.885-2.967,4.426,4.426,0,0,1,.885-2.863,2.856,2.856,0,0,1,2.265-.989,4.49,4.49,0,0,1,2.837,1.093V-54.7A4.346,4.346,0,0,1,68.025-53.734Zm18.533-.859c-.39,0-.677.234-1.249.495a5.688,5.688,0,0,1-2.369.521,3.57,3.57,0,0,1-2.811-1.171,3.7,3.7,0,0,1-.885-2.16h7.444a1.348,1.348,0,0,0,1.354-1.484,5.364,5.364,0,0,0-1.432-3.8,5.781,5.781,0,0,0-4.191-1.614,5.832,5.832,0,0,0-4.347,1.692,6.175,6.175,0,0,0-1.64,4.321,6.4,6.4,0,0,0,1.64,4.5,6.209,6.209,0,0,0,4.685,1.822,9.073,9.073,0,0,0,3.566-.7c.807-.364,1.223-.755,1.223-1.327A1.047,1.047,0,0,0,86.558-54.593Zm-7.314-4.139a3.591,3.591,0,0,1,.781-2,3.228,3.228,0,0,1,2.421-.937,3.05,3.05,0,0,1,2.238.885,3.2,3.2,0,0,1,.755,2.056Z" transform="translate(191.6 129.745)" fill="url(#linear-gradient)"/>
    <path id="Path_1190" data-name="Path 1190" d="M38.5,10.992a.1.1,0,0,1-.077-.082l-.116-.833a.034.034,0,0,0-.063,0l-.116.828a.1.1,0,0,1-.077.082l-.433.106a.034.034,0,0,0,0,.063l.433.106a.1.1,0,0,1,.077.082l.116.828a.034.034,0,0,0,.063,0l.116-.828a.1.1,0,0,1,.077-.082l.433-.106a.034.034,0,0,0,0-.063Z" transform="translate(15.497 45.605)" fill="#f9d100"/>
    <path id="Path_1191" data-name="Path 1191" d="M28.6,5.052a.111.111,0,0,1-.077-.087L28.4,4.137a.034.034,0,0,0-.063,0l-.116.828a.1.1,0,0,1-.077.087l-.433.106c-.029,0-.029.048,0,.058l.433.106a.1.1,0,0,1,.077.082l.1.833a.034.034,0,0,0,.063,0L28.5,5.4a.1.1,0,0,1,.077-.082l.433-.106a.034.034,0,0,0,0-.063Z" transform="translate(20.633 48.687)" fill="#f9d100"/>
    <path id="Path_1192" data-name="Path 1192" d="M35.722,1.525a.168.168,0,0,1-.13-.14c-.024-.26-.13-.91-.188-1.348a.048.048,0,1,0-.1,0l-.193,1.348a.164.164,0,0,1-.125.14l-.7.173a.048.048,0,0,0,0,.1l.7.168a.168.168,0,0,1,.125.14l.193,1.348a.048.048,0,0,0,.1,0L35.592,2.1a.173.173,0,0,1,.13-.14l.7-.168a.048.048,0,0,0,0-.1Z" transform="translate(17.238 50.827)" fill="#f9d100"/>
    <path id="Subtraction_4" data-name="Subtraction 4" d="M13.8,28.537h0a3.371,3.371,0,0,1-2.637-.98,3.7,3.7,0,0,1-.746-2.759c0-.008,0-.013,0-.014a14.481,14.481,0,0,0-3.76-10.227,15.844,15.844,0,0,0-3.974-3.249C1.01,10.476.11,9.41.009,8.138-.12,6.5,1.112,4.81,2.168,3.678A17.6,17.6,0,0,1,4.514,1.592C5.053,1.21,6.44.431,7.218,0l.432,2.026L20.88,26.2a17.406,17.406,0,0,1-2.6,1.3A12.934,12.934,0,0,1,13.8,28.537ZM15.749,8.393,12.133,1.5a44.949,44.949,0,0,1,3.618,6.89Z" transform="translate(35 58.547)" fill="#b89b03"/>
    <path id="Path_1185" data-name="Path 1185" d="M10.586,14.023s-7.065,5.226-.77,9.144c0,0,7.262,4.654,7.787,13.523,0,.043-.265,5.775,7,3.239,0,.053,4.331-1.6,6.338-4.813,0,0,2.406-3.292-1.612-5.544,0,0-6.083-4.014-7.411-10.963L21.4,15.466a3.86,3.86,0,0,0-3.268-3.778C18.175,11.674,14.748,10.947,10.586,14.023Z" transform="translate(31.262 44.802)" fill="#f9d100"/>
    <ellipse id="Ellipse_331" data-name="Ellipse 331" cx="0.371" cy="0.765" rx="0.371" ry="0.765" transform="translate(47.074 67.347) rotate(-30.669)" fill="#b89b03" opacity="0.5"/>
    <path id="Path_1193" data-name="Path 1193" d="M26.075,34.826c-.2-.342-.481-.553-.6-.481h0a.962.962,0,0,0,.149.741,1.006,1.006,0,0,0,.549.481h0C26.33,35.5,26.277,35.163,26.075,34.826Z" transform="translate(21.862 32.945)" fill="#b89b03"/>
    <ellipse id="Ellipse_327" data-name="Ellipse 327" cx="0.371" cy="0.765" rx="0.371" ry="0.765" transform="translate(41.545 64.302) rotate(-30.37)" fill="#b89b03" opacity="0.5"/>
    <path id="Path_1186" data-name="Path 1186" d="M14.671,28.286c-.2-.342-.481-.553-.6-.481h0a1.176,1.176,0,0,0,.7,1.222h0C14.921,28.96,14.868,28.623,14.671,28.286Z" transform="translate(27.711 36.405)" fill="#b89b03"/>
    <ellipse id="Ellipse_328" data-name="Ellipse 328" cx="0.371" cy="0.765" rx="0.371" ry="0.765" transform="translate(45.1 61.606) rotate(-30.37)" fill="#b89b03" opacity="0.5"/>
    <path id="Path_1187" data-name="Path 1187" d="M22.045,22.688c-.2-.337-.481-.549-.6-.481h0a.963.963,0,0,0,.149.741.991.991,0,0,0,.549.481h0C22.3,23.362,22.247,23.025,22.045,22.688Z" transform="translate(23.884 39.309)" fill="#b89b03"/>
    <ellipse id="Ellipse_332" data-name="Ellipse 332" cx="0.496" cy="1.015" rx="0.496" ry="1.015" transform="translate(51.62 68.157) rotate(-30.37)" fill="#b89b03" opacity="0.5"/>
    <path id="Path_1194" data-name="Path 1194" d="M35.96,36.392c-.265-.448-.621-.732-.794-.626h0a1.28,1.28,0,0,0,.2.963,1.319,1.319,0,0,0,.727.655h.029C36.292,37.311,36.22,36.83,35.96,36.392Z" transform="translate(16.769 32.28)" fill="#b89b03"/>
    <ellipse id="Ellipse_333" data-name="Ellipse 333" cx="0.371" cy="0.765" rx="0.371" ry="0.765" transform="translate(49.483 74.341) rotate(-30.37)" fill="#b89b03" opacity="0.5"/>
    <path id="Path_1195" data-name="Path 1195" d="M31.161,49.148c-.2-.337-.481-.549-.6-.481h0a.962.962,0,0,0,.154.741,1,1,0,0,0,.544.481h0C31.411,49.826,31.358,49.49,31.161,49.148Z" transform="translate(19.157 25.583)" fill="#b89b03"/>
    <ellipse id="Ellipse_334" data-name="Ellipse 334" cx="0.371" cy="0.765" rx="0.371" ry="0.765" transform="translate(59.796 75.77) rotate(-49.76)" fill="#919100" opacity="0.5"/>
    <path id="Path_1196" data-name="Path 1196" d="M52.642,51.683c-.3-.255-.621-.366-.722-.245h0a1.185,1.185,0,0,0,1.068.929h0C53.1,52.251,52.921,51.952,52.642,51.683Z" transform="translate(8.067 24.164)" fill="#919100"/>
    <ellipse id="Ellipse_342" data-name="Ellipse 342" cx="0.371" cy="0.765" rx="0.371" ry="0.765" transform="translate(51.902 80.493) rotate(-30.37)" fill="#b89b03" opacity="0.5"/>
    <path id="Path_1205" data-name="Path 1205" d="M36.186,61.938c-.2-.337-.481-.549-.6-.481h0a.962.962,0,0,0,.149.736,1.006,1.006,0,0,0,.549.481h0C36.436,62.616,36.383,62.28,36.186,61.938Z" transform="translate(16.548 18.948)" fill="#b89b03"/>
    <ellipse id="Ellipse_335" data-name="Ellipse 335" cx="0.371" cy="0.765" rx="0.371" ry="0.765" transform="translate(53.306 74.879) rotate(-30.37)" fill="#b89b03" opacity="0.5"/>
    <path id="Path_1197" data-name="Path 1197" d="M39.105,50.268c-.2-.337-.481-.549-.6-.481h0a.963.963,0,0,0,.149.741,1.006,1.006,0,0,0,.549.481h0C39.36,50.946,39.3,50.609,39.105,50.268Z" transform="translate(15.034 25.002)" fill="#b89b03"/>
    <ellipse id="Ellipse_343" data-name="Ellipse 343" cx="0.149" cy="0.303" rx="0.149" ry="0.303" transform="translate(58.325 78.827) rotate(-49.76)" fill="#b89b03" opacity="0.5"/>
    <path id="Path_1206" data-name="Path 1206" d="M48.924,58.135c-.12-.1-.245-.144-.284-.1h0a.351.351,0,0,0,.154.255.38.38,0,0,0,.265.116h0C49.107,58.356,49.044,58.236,48.924,58.135Z" transform="translate(9.768 20.725)" fill="#919100"/>
    <ellipse id="Ellipse_336" data-name="Ellipse 336" cx="0.149" cy="0.303" rx="0.149" ry="0.303" transform="translate(57.271 73.919) rotate(-49.76)" fill="#b89b03" opacity="0.5"/>
    <path id="Path_1198" data-name="Path 1198" d="M46.694,47.936c-.12-.1-.245-.144-.284-.1h0a.39.39,0,0,0,.154.255.4.4,0,0,0,.27.116h0C46.9,48.157,46.829,48.037,46.694,47.936Z" transform="translate(10.925 26.015)" fill="#b89b03"/>
    <ellipse id="Ellipse_337" data-name="Ellipse 337" cx="0.149" cy="0.303" rx="0.149" ry="0.303" transform="translate(50.61 71.396) rotate(-30.669)" fill="#b89b03" opacity="0.5"/>
    <path id="Path_1199" data-name="Path 1199" d="M32.738,43.121c-.077-.135-.183-.217-.236-.188h0a.38.38,0,0,0,.063.294.409.409,0,0,0,.217.2h0C32.849,43.391,32.829,43.256,32.738,43.121Z" transform="translate(18.242 28.438)" fill="#b89b03"/>
    <ellipse id="Ellipse_338" data-name="Ellipse 338" cx="0.149" cy="0.303" rx="0.149" ry="0.303" transform="translate(47.061 71.062) rotate(-30.37)" fill="#b89b03" opacity="0.5"/>
    <path id="Path_1200" data-name="Path 1200" d="M25.488,42.161c-.082-.135-.188-.217-.236-.188h0a.38.38,0,0,0,.063.294.409.409,0,0,0,.217.2h0C25.608,42.426,25.565,42.3,25.488,42.161Z" transform="translate(21.904 29.051)" fill="#b89b03"/>
    <ellipse id="Ellipse_344" data-name="Ellipse 344" cx="0.149" cy="0.303" rx="0.149" ry="0.303" transform="translate(50.3 78.062) rotate(-30.37)" fill="#b89b03" opacity="0.5"/>
    <path id="Path_1207" data-name="Path 1207" d="M32.217,56.72c-.077-.135-.183-.221-.236-.188h0a.366.366,0,0,0,.063.294.39.39,0,0,0,.212.193h0C32.318,56.985,32.3,56.85,32.217,56.72Z" transform="translate(18.414 21.5)" fill="#b89b03"/>
    <ellipse id="Ellipse_339" data-name="Ellipse 339" cx="0.149" cy="0.303" rx="0.149" ry="0.303" transform="translate(49.281 64.161) rotate(-30.37)" fill="#b89b03" opacity="0.5"/>
    <path id="Path_1201" data-name="Path 1201" d="M30.1,27.791c-.077-.135-.183-.217-.236-.188h0a.361.361,0,0,0,.063.294.371.371,0,0,0,.212.192h0C30.2,28.075,30.178,27.945,30.1,27.791Z" transform="translate(19.514 36.505)" fill="#b89b03"/>
    <ellipse id="Ellipse_329" data-name="Ellipse 329" cx="0.149" cy="0.303" rx="0.149" ry="0.303" transform="translate(44.821 64.919) rotate(-30.37)" fill="#b89b03" opacity="0.5"/>
    <path id="Path_1188" data-name="Path 1188" d="M20.837,29.41c-.077-.135-.183-.221-.236-.188h0a.38.38,0,0,0,.058.294.4.4,0,0,0,.217.193h0C20.938,29.675,20.914,29.54,20.837,29.41Z" transform="translate(24.317 35.667)" fill="#b89b03"/>
    <ellipse id="Ellipse_340" data-name="Ellipse 340" cx="0.149" cy="0.303" rx="0.149" ry="0.303" transform="translate(47.336 59.473) rotate(-30.37)" fill="#b89b03" opacity="0.5"/>
    <path id="Path_1202" data-name="Path 1202" d="M26.058,18.091c-.077-.135-.183-.217-.236-.188h0a.38.38,0,0,0,.063.294.366.366,0,0,0,.217.193h0C26.159,18.356,26.14,18.226,26.058,18.091Z" transform="translate(21.608 41.537)" fill="#b89b03"/>
    <ellipse id="Ellipse_330" data-name="Ellipse 330" cx="0.149" cy="0.303" rx="0.149" ry="0.303" transform="translate(42.409 61.093) rotate(-30.37)" fill="#b89b03" opacity="0.5"/>
    <path id="Path_1189" data-name="Path 1189" d="M15.823,21.451c-.082-.135-.188-.217-.241-.188h0a.38.38,0,0,0,.063.294.409.409,0,0,0,.217.2h0C15.919,21.721,15.9,21.586,15.823,21.451Z" transform="translate(26.92 39.794)" fill="#b89b03"/>
    <ellipse id="Ellipse_341" data-name="Ellipse 341" cx="0.371" cy="0.765" rx="0.371" ry="0.765" transform="translate(49.165 60.017) rotate(-30.669)" fill="#b89b03" opacity="0.5"/>
    <path id="Path_1203" data-name="Path 1203" d="M30.5,19.576c-.2-.342-.481-.553-.6-.481h0a1.176,1.176,0,0,0,.7,1.222h0C30.751,20.25,30.7,19.913,30.5,19.576Z" transform="translate(19.499 40.924)" fill="#b89b03"/>
  </g>
</svg>
