<svg id="Group_956" data-name="Group 956" xmlns="http://www.w3.org/2000/svg" width="31.547" height="31.547" viewBox="0 0 31.547 31.547">
  <g id="twitter-circular-button">
    <g id="Group_945" data-name="Group 945">
      <path id="Path_28648" data-name="Path 28648" d="M31.547,15.774A15.774,15.774,0,1,0,15.774,31.547,15.774,15.774,0,0,0,31.547,15.774Zm-30.113,0a14.34,14.34,0,1,1,14.34,14.34A14.339,14.339,0,0,1,1.434,15.774Z" fill="#686868"/>
    </g>
  </g>
  <g id="twitter-logo-silhouette" transform="translate(6.419 8.493)">
    <g id="Group_949" data-name="Group 949" transform="translate(0 0)">
      <path id="Path_28655" data-name="Path 28655" d="M18.554,59.224a7.6,7.6,0,0,1-2.185.6,3.822,3.822,0,0,0,1.673-2.1,7.673,7.673,0,0,1-2.418.924,3.809,3.809,0,0,0-6.485,3.47,10.805,10.805,0,0,1-7.844-3.977,3.81,3.81,0,0,0,1.178,5.08,3.806,3.806,0,0,1-1.724-.478v.048A3.81,3.81,0,0,0,3.8,66.519a3.854,3.854,0,0,1-1,.133,3.653,3.653,0,0,1-.716-.071,3.808,3.808,0,0,0,3.555,2.643A7.636,7.636,0,0,1,.909,70.851,8.086,8.086,0,0,1,0,70.8a10.758,10.758,0,0,0,5.834,1.712A10.754,10.754,0,0,0,16.663,61.683l-.013-.493A7.6,7.6,0,0,0,18.554,59.224Z" transform="translate(-0.001 -57.441)" fill="#686868"/>
    </g>
  </g>
</svg>
