<svg id="twitter" xmlns="http://www.w3.org/2000/svg" width="26.833" height="26.834" viewBox="0 0 26.833 26.834">
  <path id="Path_32719" data-name="Path 32719" d="M13.417,0A13.417,13.417,0,1,1,0,13.417,13.417,13.417,0,0,1,13.417,0Z" fill="#26a6d1"/>
  <path id="Path_32720" data-name="Path 32720" d="M79.644,83.475a6.681,6.681,0,0,1-1.878.5A3.2,3.2,0,0,0,79.2,82.219a6.629,6.629,0,0,1-2.077.771,3.312,3.312,0,0,0-2.386-1,3.222,3.222,0,0,0-3.269,3.172,3.079,3.079,0,0,0,.085.724,9.378,9.378,0,0,1-6.738-3.316,3.082,3.082,0,0,0-.443,1.595A3.147,3.147,0,0,0,65.83,86.8a3.324,3.324,0,0,1-1.482-.4v.04a3.2,3.2,0,0,0,2.623,3.112,3.381,3.381,0,0,1-.861.112,3.3,3.3,0,0,1-.615-.057,3.261,3.261,0,0,0,3.055,2.2,6.684,6.684,0,0,1-4.061,1.358,6.875,6.875,0,0,1-.781-.044,9.462,9.462,0,0,0,5.013,1.426,9.1,9.1,0,0,0,9.3-9.029l-.009-.411A6.525,6.525,0,0,0,79.644,83.475Z" transform="translate(-57.84 -74.436)" fill="#fff"/>
</svg>
