<svg xmlns="http://www.w3.org/2000/svg" width="26.131" height="26.118" viewBox="0 0 26.131 26.118">
  <g id="whatsapp" transform="translate(0 -0.134)">
    <path id="Path_32705" data-name="Path 32705" d="M13.059.134A13.058,13.058,0,0,0,2.068,20.239L.036,25.51a.544.544,0,0,0,.508.74.529.529,0,0,0,.183-.032l5.441-1.942A13.058,13.058,0,1,0,13.059.134Z" transform="translate(0 0)" fill="#4caf50"/>
    <path id="Path_32706" data-name="Path 32706" d="M140.766,136.9s-1.333-.653-2.168-1.088c-.945-.486-2.054.424-2.577.942a5.932,5.932,0,0,1-3.57-3.57c.518-.523,1.427-1.632.942-2.577-.43-.836-1.088-2.168-1.088-2.169a.544.544,0,0,0-.485-.3h-1.088a3.279,3.279,0,0,0-2.72,3.264c0,1.708,2.045,4.99,3.423,6.37s4.661,3.423,6.37,3.423a3.279,3.279,0,0,0,3.264-2.72v-1.088A.544.544,0,0,0,140.766,136.9Z" transform="translate(-121.482 -121.472)" fill="#fafafa"/>
  </g>
</svg>
